<?xml version="1.0" standalone="no"?>
<!DOCTYPE svg PUBLIC "-//W3C//DTD SVG 20010904//EN"
 "http://www.w3.org/TR/2001/REC-SVG-20010904/DTD/svg10.dtd">
<svg version="1.0" xmlns="http://www.w3.org/2000/svg"
 width="200.000000pt" height="200.000000pt" viewBox="0 0 200.000000 200.000000"
 preserveAspectRatio="xMidYMid meet">

<g transform="translate(0.000000,200.000000) scale(0.100000,-0.100000)"
fill="#000000" stroke="none">
<path d="M830 1971 c-8 -5 -18 -7 -22 -4 -5 2 -15 -1 -23 -7 -8 -7 -15 -9 -15
-5 0 4 -7 2 -15 -5 -8 -7 -15 -9 -15 -6 0 12 -91 -56 -98 -72 -3 -10 -12 -23
-19 -30 -7 -7 -16 -30 -19 -51 l-6 -38 -67 0 c-59 0 -111 -6 -118 -13 -2 -1
-7 -4 -13 -5 -5 -1 -13 -4 -17 -5 -5 -1 -11 -2 -15 -1 -5 0 -8 -4 -8 -10 0 -5
-4 -7 -10 -4 -6 3 -10 1 -10 -6 0 -7 -3 -9 -6 -6 -10 10 -80 -49 -103 -86 -18
-31 -26 -67 -23 -114 1 -12 17 -39 34 -60 18 -20 28 -34 21 -30 -6 4 -14 3
-18 -3 -4 -6 -11 -8 -16 -5 -5 4 -9 1 -9 -5 0 -6 -5 -8 -10 -5 -6 3 -10 1 -10
-5 0 -6 -4 -8 -10 -5 -5 3 -10 1 -10 -4 0 -6 -6 -11 -13 -11 -7 0 -18 -9 -25
-20 -7 -12 -17 -18 -22 -15 -11 7 -76 -72 -95 -118 -20 -49 -19 -72 6 -117 45
-80 157 -104 255 -55 56 29 64 30 64 12 0 -17 44 -59 53 -50 4 3 7 1 7 -5 0
-17 50 -15 84 3 28 15 30 15 56 -13 32 -35 69 -60 95 -65 11 -1 25 -6 31 -10
20 -12 266 1 319 17 28 8 77 31 110 51 48 29 63 34 80 26 42 -21 76 -17 112
13 16 14 38 23 49 21 10 -2 19 -4 19 -6 0 -2 23 -6 77 -15 63 -10 141 20 198
76 58 57 73 88 71 150 -3 88 -70 177 -153 202 -32 9 -38 16 -38 39 0 15 -7 34
-15 42 -8 8 -12 17 -9 20 3 3 -6 13 -19 22 -28 18 -80 24 -114 12 -19 -7 -24
-3 -37 28 -8 19 -23 38 -33 42 -10 4 -21 10 -24 15 -3 5 -22 9 -42 10 -28 1
-37 5 -37 19 0 33 -41 129 -61 142 -10 8 -16 16 -14 19 10 9 -57 60 -110 84
-57 26 -153 40 -175 25z"/>

</g>
</svg>
